<svg id="visual" viewBox="0 0 900 600" width="900" height="600" xmlns="http://www.w3.org/2000/svg"
    xmlns:xlink="http://www.w3.org/1999/xlink" version="1.1">
    <g transform="translate(59.03825632732725 523.6805581550344)">
        <path
            d="M349.9 -394.5C463.6 -321.5 573 -220.9 597 -102.7C621 15.6 559.5 151.6 480.7 267.8C402 384 306 480.5 179.5 552.1C53 623.6 -104 670.3 -279.7 655.4C-455.4 640.5 -649.9 564 -703.7 427.3C-757.6 290.7 -670.8 93.9 -582.3 -49.6C-493.8 -193.1 -403.6 -283.3 -306.2 -359.1C-208.9 -435 -104.5 -496.5 6.8 -504.6C118.1 -512.7 236.1 -467.4 349.9 -394.5"
            fill="#FF69B4"></path>
    </g>
</svg>