<svg id="visual" viewBox="0 0 900 600" width="900" height="600" xmlns="http://www.w3.org/2000/svg"
    xmlns:xlink="http://www.w3.org/1999/xlink" version="1.1">
    <g transform="translate(925.3116826760313 10.93277583871992)">
        <path
            d="M434.2 -513.4C534.9 -432.9 569.8 -269.7 611 -98.5C652.2 72.8 699.8 252.1 643.4 391.7C587 531.4 426.5 631.2 274.2 635.7C121.8 640.1 -22.5 549.1 -196.7 502.3C-371 455.4 -575.2 452.7 -662.1 356.1C-749.1 259.5 -718.7 69.1 -693.3 -130.4C-667.8 -329.9 -647.3 -538.4 -532.5 -616.5C-417.8 -694.6 -208.9 -642.3 -21.1 -617.1C166.7 -592 333.4 -594 434.2 -513.4"
            fill="#fdcff1"></path>
    </g>
</svg>