<svg id="visual" viewBox="0 0 900 600" width="900" height="600" xmlns="http://www.w3.org/2000/svg"
    xmlns:xlink="http://www.w3.org/1999/xlink" version="1.1">
    <rect x="0" y="0" width="900" height="600" fill="#001220"></rect>
    <defs>
        <linearGradient id="grad1_0" x1="33.3%" y1="0%" x2="100%" y2="100%">
            <stop offset="20%" stop-color="#001220" stop-opacity="1"></stop>
            <stop offset="80%" stop-color="#001220" stop-opacity="1"></stop>
        </linearGradient>
    </defs>
    <defs>
        <linearGradient id="grad2_0" x1="0%" y1="0%" x2="66.7%" y2="100%">
            <stop offset="20%" stop-color="#001220" stop-opacity="1"></stop>
            <stop offset="80%" stop-color="#001220" stop-opacity="1"></stop>
        </linearGradient>
    </defs>
    <g transform="translate(900, 0)">
        <path
            d="M0 486.7C-64.6 481.7 -129.1 476.6 -186.3 449.7C-243.4 422.8 -293.2 373.9 -321 321C-348.9 268.1 -354.8 211.1 -378.8 156.9C-402.8 102.7 -444.8 51.4 -486.7 0L0 0Z"
            fill="#FBAE3C"></path>
    </g>
    <g transform="translate(0, 600)">
        <path
            d="M0 -486.7C54.2 -447.3 108.4 -407.8 156.5 -377.9C204.7 -347.9 246.8 -327.4 299.8 -299.8C352.8 -272.2 416.7 -237.4 449.7 -186.3C482.7 -135.1 484.7 -67.6 486.7 0L0 0Z"
            fill="#FBAE3C"></path>
    </g>
</svg>